HIERARCHY
ROOT Hips
{
	OFFSET -0.001795 -0.223333 0.028219
	CHANNELS 6 Xposition Yposition Zposition Zrotation Yrotation Xrotation 
	JOINT LeftUpLeg
	{
		OFFSET 0.069520 -0.091406 -0.006815
		CHANNELS 3 Zrotation Yrotation Xrotation
		JOINT LeftLeg
		{
			OFFSET 0.034277 -0.375199 -0.004496
			CHANNELS 3 Zrotation Yrotation Xrotation
			JOINT LeftFoot
			{
				OFFSET -0.013596 -0.397961 -0.043693
				CHANNELS 3 Zrotation Yrotation Xrotation
				JOINT LeftToe
				{
					OFFSET 0.026358 -0.055791 0.119288
					CHANNELS 3 Zrotation Yrotation Xrotation
					End Site
					{
						OFFSET 0.000000 0.000000 0.000000
					}
				}
			}
		}
	}
	JOINT RightUpLeg
	{
		OFFSET -0.067670 -0.090522 -0.004320
		CHANNELS 3 Zrotation Yrotation Xrotation
		JOINT RightLeg
		{
			OFFSET -0.038290 -0.382569 -0.008850
			CHANNELS 3 Zrotation Yrotation Xrotation
			JOINT RightFoot
			{
				OFFSET 0.015774 -0.398415 -0.042312
				CHANNELS 3 Zrotation Yrotation Xrotation
				JOINT RightToe
				{
					OFFSET -0.025372 -0.048144 0.123348
					CHANNELS 3 Zrotation Yrotation Xrotation
					End Site
					{
						OFFSET 0.000000 0.000000 0.000000
					}
				}
			}
		}
	}
	JOINT Spine
	{
		OFFSET -0.002533 0.108963 -0.026696
		CHANNELS 3 Zrotation Yrotation Xrotation
		JOINT Spine1
		{
			OFFSET 0.005487 0.135180 0.001092
			CHANNELS 3 Zrotation Yrotation Xrotation
			JOINT Spine2
			{
				OFFSET 0.001457 0.052922 0.025425
				CHANNELS 3 Zrotation Yrotation Xrotation
				JOINT Neck
				{
					OFFSET -0.002778 0.213870 -0.042857
					CHANNELS 3 Zrotation Yrotation Xrotation
					JOINT Head
					{
						OFFSET 0.005152 0.064970 0.051349
						CHANNELS 3 Zrotation Yrotation Xrotation
						End Site
						{
							OFFSET 0.000000 0.000000 0.000000
						}
					}
				}
				JOINT LeftShoulder
				{
					OFFSET 0.078845 0.121749 -0.034090
					CHANNELS 3 Zrotation Yrotation Xrotation
					JOINT LeftArm
					{
						OFFSET 0.090977 0.030469 -0.008868
						CHANNELS 3 Zrotation Yrotation Xrotation
						JOINT LeftForeArm
						{
							OFFSET 0.259612 -0.012772 -0.027456
							CHANNELS 3 Zrotation Yrotation Xrotation
							JOINT LeftHand
							{
								OFFSET 0.249234 0.008986 -0.001171
								CHANNELS 3 Zrotation Yrotation Xrotation
								End Site
								{
									OFFSET 0.000000 0.000000 0.000000
								}
							}
						}
					}
				}
				JOINT RightShoulder
				{
					OFFSET -0.081759 0.118833 -0.038615
					CHANNELS 3 Zrotation Yrotation Xrotation
					JOINT RightArm
					{
						OFFSET -0.096012 0.032551 -0.009143
						CHANNELS 3 Zrotation Yrotation Xrotation
						JOINT RightForeArm
						{
							OFFSET -0.253742 -0.013329 -0.021401
							CHANNELS 3 Zrotation Yrotation Xrotation
							JOINT RightHand
							{
								OFFSET -0.255298 0.007772 -0.005559
								CHANNELS 3 Zrotation Yrotation Xrotation
								End Site
								{
									OFFSET 0.000000 0.000000 0.000000
								}
							}
						}
					}
				}
			}
		}
	}
}
MOTION
Frames: 14
Frame Time: 0.050000
-0.030701 0.887632 -0.082688 -5.939663 44.096987 23.965056 26.198748 -7.880453 -59.714941 -9.657854 -0.906317 32.501493 -0.407026 2.551881 3.624050 0.000000 0.000000 0.000000 4.484209 -4.846231 -54.247137 0.075666 -3.099535 34.415874 -8.567162 -19.142122 -1.201806 0.000000 0.000000 0.000000 -12.390089 -6.969357 49.725744 -7.114258 2.851388 -4.693118 5.490292 7.929809 12.061878 -18.784647 12.679563 -13.671018 0.000000 0.000000 0.000000 -0.516940 7.419018 -3.383830 -52.076669 -3.356197 -7.158859 -72.024964 -73.087536 50.902392 0.000000 0.000000 0.000000 -14.952600 -1.297567 -2.369565 66.485476 -0.338561 0.452142 35.032234 73.520388 38.622313 0.000000 0.000000 0.000000 
-0.031963 0.885882 -0.083212 -6.045778 46.069930 23.350476 26.172283 -8.546817 -59.982670 -9.481237 -1.220807 32.970191 -0.596116 1.374661 2.721613 0.000000 0.000000 0.000000 4.402662 -5.454503 -54.010074 0.284713 -3.570563 34.954161 -8.678984 -19.514916 -1.902937 0.000000 0.000000 0.000000 -12.847883 -7.400900 50.144574 -7.272293 2.915142 -4.996435 5.463220 8.927202 12.409115 -18.311622 12.524087 -12.824898 0.000000 0.000000 0.000000 0.010393 7.256689 -3.168401 -52.830198 -4.978972 -6.842934 -73.471497 -74.737457 52.776886 0.000000 0.000000 0.000000 -15.712302 -1.422860 -2.707831 66.356803 0.082457 1.271870 38.488726 74.189712 42.556166 0.000000 0.000000 0.000000 
-0.032421 0.884367 -0.083974 -6.347271 47.689551 22.530850 26.293074 -9.040677 -60.294204 -9.402159 -1.472828 33.543670 -0.988487 0.134705 2.459575 0.000000 0.000000 0.000000 4.341913 -5.877915 -53.673258 0.575722 -4.052203 35.406340 -8.659728 -19.599814 -2.519955 0.000000 0.000000 0.000000 -12.870472 -7.808486 50.160950 -8.039343 3.164100 -5.149443 5.445183 9.475612 12.839603 -19.009507 12.918051 -12.081695 0.000000 0.000000 0.000000 -0.623494 6.800988 -3.334275 -52.719606 -6.262565 -6.281447 -75.701175 -76.800477 56.090947 0.000000 0.000000 0.000000 -16.946017 -0.934957 -2.890763 67.055843 0.956117 2.396737 36.691495 75.627606 42.354774 0.000000 0.000000 0.000000 
-0.032110 0.882775 -0.084878 -6.585429 49.484685 21.708918 26.114110 -9.648021 -60.395861 -9.199302 -1.789752 33.872498 -1.254783 -1.065818 1.936847 0.000000 0.000000 0.000000 3.897365 -6.508123 -53.147043 1.064854 -4.688936 35.795598 -8.972483 -20.322514 -2.693056 0.000000 0.000000 0.000000 -13.295633 -8.169609 50.466293 -8.572937 3.341151 -5.511647 5.635110 10.434124 13.408875 -18.834026 12.878859 -11.944638 0.000000 0.000000 0.000000 -0.581089 5.995500 -3.124257 -53.330686 -7.833920 -5.876795 -75.305303 -78.584315 56.632351 0.000000 0.000000 0.000000 -17.995309 -0.367363 -3.107682 66.952340 2.058023 3.599635 29.625765 75.865902 37.028788 0.000000 0.000000 0.000000 
-0.030950 0.881622 -0.085465 -6.836213 50.921712 20.862794 25.861721 -10.117716 -60.244652 -8.993932 -2.112026 34.294404 -1.450711 -2.470811 1.117746 0.000000 0.000000 0.000000 3.636313 -6.825678 -52.328029 1.443245 -5.113636 35.541944 -9.182754 -20.865532 -2.875950 0.000000 0.000000 0.000000 -13.704411 -8.525116 50.923532 -9.088775 3.515653 -6.136062 5.654203 11.597828 13.682418 -19.030433 12.968713 -11.654651 0.000000 0.000000 0.000000 -1.027446 4.614401 -2.952531 -53.219963 -8.782117 -5.455751 -66.220739 -79.755169 48.692908 0.000000 0.000000 0.000000 -18.777068 0.775724 -3.128484 66.381389 2.841592 4.451172 21.119945 74.910455 29.761179 0.000000 0.000000 0.000000 
-0.028711 0.881488 -0.085826 -7.053832 52.067065 20.321201 26.043361 -10.403187 -60.304502 -9.425508 -2.095867 34.285227 -1.744181 -3.184544 1.234930 0.000000 0.000000 0.000000 3.433744 -6.948359 -51.379276 1.864749 -5.484063 35.089376 -9.275529 -21.486545 -3.742916 0.000000 0.000000 0.000000 -14.100161 -8.657204 50.996096 -9.907837 3.754819 -6.337506 5.587637 12.410751 13.666835 -18.347628 12.632622 -11.775526 0.000000 0.000000 0.000000 -0.996949 3.746859 -2.722809 -53.396792 -10.017558 -5.002471 -54.625299 -80.475631 38.296302 0.000000 0.000000 0.000000 -19.593952 1.670512 -3.182160 66.487476 3.710491 5.401163 14.543212 73.021644 23.715506 0.000000 0.000000 0.000000 
-0.025298 0.884278 -0.085934 -7.087552 53.400704 20.073656 25.171494 -10.878115 -59.559830 -8.263835 -2.537060 33.258673 -2.382400 -5.136594 1.128805 0.000000 0.000000 0.000000 3.417075 -6.848613 -49.947207 1.678530 -5.218325 33.257274 -9.655536 -22.326147 -3.372665 0.000000 0.000000 0.000000 -14.257987 -8.901874 50.953433 -10.568818 3.924702 -6.710960 5.635753 12.872811 13.546890 -18.111525 12.507194 -11.290364 0.000000 0.000000 0.000000 -1.280552 2.811300 -2.608974 -53.554053 -10.222114 -4.897235 -38.546551 -79.601327 23.505640 0.000000 0.000000 0.000000 -20.016300 2.967855 -3.032673 66.523096 4.291325 5.978826 11.033255 70.674512 19.936185 0.000000 0.000000 0.000000 
-0.021070 0.888410 -0.086313 -7.138656 54.127910 19.805958 24.198673 -11.097927 -58.405937 -7.095642 -2.864368 32.041938 -3.019509 -6.979861 1.117896 0.000000 0.000000 0.000000 3.397421 -6.509769 -48.289178 1.494619 -4.856000 31.318096 -9.944220 -23.259939 -3.432568 0.000000 0.000000 0.000000 -14.942693 -8.739883 50.923640 -11.257016 4.098014 -7.176064 5.791019 13.300335 13.343330 -18.131730 12.516505 -10.869081 0.000000 0.000000 0.000000 -1.871083 2.217446 -2.730960 -53.584415 -10.678737 -4.592859 -22.562483 -78.039107 9.608987 0.000000 0.000000 0.000000 -19.617753 3.546173 -2.871552 65.826357 4.501106 5.910528 10.976075 69.255630 19.342493 0.000000 0.000000 0.000000 
-0.016703 0.892656 -0.087085 -7.206597 54.833117 19.910911 23.457201 -11.284795 -57.592981 -5.975714 -3.083287 30.767160 -3.583458 -8.635354 1.105814 0.000000 0.000000 0.000000 3.299572 -6.288609 -46.981690 1.531773 -4.576862 29.473933 -10.399817 -24.321338 -3.076721 0.000000 0.000000 0.000000 -15.024293 -8.723182 50.539077 -11.843828 4.224571 -7.418205 5.931899 13.319978 13.192245 -17.710958 12.310227 -10.716775 0.000000 0.000000 0.000000 -2.150302 2.178474 -2.879273 -53.924457 -10.395598 -4.733588 -17.032938 -75.155408 4.779370 0.000000 0.000000 0.000000 -19.494783 3.591987 -2.877312 65.384397 4.284399 5.724128 11.756000 68.401728 19.582842 0.000000 0.000000 0.000000 
-0.013054 0.895314 -0.088275 -7.806940 55.499047 19.559535 23.252077 -11.355534 -57.041543 -4.965739 -3.284780 29.904944 -4.108122 -10.583471 0.840022 0.000000 0.000000 0.000000 3.473684 -6.107729 -46.237342 1.647690 -4.468719 28.365575 -10.737306 -24.888718 -2.476096 0.000000 0.000000 0.000000 -15.308086 -8.665208 50.295400 -12.163839 4.286398 -7.712796 6.161025 13.870297 13.310354 -16.858001 11.914588 -10.515534 0.000000 0.000000 0.000000 -2.740493 2.115247 -3.231932 -53.842096 -10.252750 -4.705293 -14.860748 -73.261408 2.766425 0.000000 0.000000 0.000000 -19.108751 3.830843 -2.825509 64.229818 4.072085 5.438735 13.309103 68.521298 20.891557 0.000000 0.000000 0.000000 
-0.010379 0.896306 -0.089599 -8.647093 56.211212 19.213286 23.633470 -11.476239 -57.242759 -4.603406 -3.334115 29.493046 -4.351943 -11.359631 0.853412 0.000000 0.000000 0.000000 3.670361 -6.066258 -45.939202 2.230695 -4.636990 27.601823 -10.729445 -24.981139 -2.642379 0.000000 0.000000 0.000000 -15.461580 -8.777311 50.296526 -12.427038 4.334039 -7.915179 6.267460 14.201458 13.672202 -15.795623 11.411971 -9.857933 0.000000 0.000000 0.000000 -2.523668 2.078321 -3.174116 -53.706944 -10.701810 -4.606816 -12.830605 -72.022592 1.037393 0.000000 0.000000 0.000000 -19.343682 3.847945 -2.950326 63.745614 4.257164 5.625929 13.591801 69.309467 21.622232 0.000000 0.000000 0.000000 
-0.008363 0.895393 -0.090700 -9.170886 56.813603 19.105881 24.104397 -11.603918 -57.605430 -4.400294 -3.377977 29.357587 -4.451305 -12.430173 0.410174 0.000000 0.000000 0.000000 3.698982 -6.226999 -46.020135 2.733577 -4.972380 27.715889 -10.436320 -24.626345 -3.378623 0.000000 0.000000 0.000000 -16.057760 -8.825688 50.655194 -12.429041 4.329149 -8.205692 6.247020 14.979221 14.102363 -14.430155 10.781549 -10.015034 0.000000 0.000000 0.000000 -2.667041 1.869307 -3.278763 -52.796575 -10.347582 -4.601546 -14.972814 -71.539676 2.217098 0.000000 0.000000 0.000000 -19.852346 3.498547 -3.261388 63.248237 4.146224 5.846788 15.926216 70.221688 24.006034 0.000000 0.000000 0.000000 
-0.006623 0.893715 -0.091146 -9.948668 57.751143 18.869624 25.090503 -11.811841 -58.480194 -4.440199 -3.296321 29.046859 -5.039125 -13.493484 0.999713 0.000000 0.000000 0.000000 3.993738 -6.576009 -46.758345 3.226912 -5.308198 27.927164 -10.380907 -24.537747 -3.747370 0.000000 0.000000 0.000000 -16.448100 -9.032394 51.021312 -12.700936 4.375812 -8.338888 6.570450 15.367548 14.488303 -14.065490 10.542999 -9.002246 0.000000 0.000000 0.000000 -2.996127 1.680678 -3.462349 -51.940845 -9.704277 -4.642043 -18.656677 -72.027162 4.675348 0.000000 0.000000 0.000000 -19.952908 3.343238 -3.415396 62.530112 4.146003 5.774056 20.601247 71.869724 28.790874 0.000000 0.000000 0.000000 
-0.004549 0.891005 -0.090828 -10.259629 58.590641 18.670730 25.332078 -12.029282 -58.670506 -3.889328 -3.365148 28.491830 -5.639472 -15.603823 0.978586 0.000000 0.000000 0.000000 4.092126 -6.967794 -47.310147 3.112806 -5.588512 28.902149 -9.763944 -23.308099 -4.505966 0.000000 0.000000 0.000000 -17.278737 -9.199790 51.835897 -12.691129 4.373321 -8.554183 6.770337 16.576785 14.595180 -12.311487 9.550067 -7.993321 0.000000 0.000000 0.000000 -3.208656 0.952168 -3.457607 -50.965628 -9.068229 -4.639135 -25.027396 -73.062757 8.967737 0.000000 0.000000 0.000000 -20.471819 2.731778 -3.824846 62.187347 3.084565 5.538388 29.424102 73.249241 37.123383 0.000000 0.000000 0.000000 
